<?xml version="1.0" standalone="no"?>
<!DOCTYPE svg PUBLIC "-//W3C//DTD SVG 20010904//EN"
 "http://www.w3.org/TR/2001/REC-SVG-20010904/DTD/svg10.dtd">
<svg version="1.0" xmlns="http://www.w3.org/2000/svg"
 width="128.000000pt" height="128.000000pt" viewBox="0 0 128.000000 128.000000"
 preserveAspectRatio="xMidYMid meet">

<g transform="translate(0.000000,128.000000) scale(0.100000,-0.100000)"
fill="#000000" stroke="none">
<path d="M575 1250 c-3 -5 -1 -18 5 -29 8 -16 5 -27 -12 -53 l-23 -34 -45 18
c-84 32 -145 19 -227 -48 -45 -37 -54 -54 -26 -54 9 0 41 -12 72 -27 41 -20
72 -27 118 -27 l62 -1 7 -40 c9 -58 27 -87 80 -134 l47 -41 47 40 c52 44 80
92 80 138 0 29 0 29 68 34 42 3 83 13 112 28 25 13 59 26 75 30 l30 7 -39 36
c-47 43 -115 77 -156 77 -16 0 -52 -9 -80 -19 l-49 -19 -19 33 c-11 17 -41 46
-66 63 -53 36 -52 36 -61 22z m135 -140 c29 15 106 12 120 -5 11 -13 4 -15
-51 -16 -35 0 -73 -4 -84 -9 -12 -4 16 -6 65 -3 l85 4 -33 -30 c-38 -36 -93
-42 -126 -13 -17 15 -17 13 3 -16 21 -30 22 -37 11 -60 l-13 -27 -9 35 c-14
53 -27 58 -15 5 9 -39 8 -48 -6 -63 -16 -15 -17 -13 -17 31 0 32 -4 46 -11 42
-6 -4 -8 -23 -5 -46 5 -37 4 -39 -15 -29 -12 7 -18 18 -15 28 2 9 7 35 10 57
l5 40 -11 -35 c-5 -19 -12 -42 -15 -50 -4 -13 -5 -13 -13 0 -6 8 -10 24 -10
36 0 24 41 66 61 64 38 -6 42 -1 37 52 l-5 52 19 -27 c16 -22 23 -25 38 -17z
m-132 -73 c-31 -29 -83 -22 -129 18 l-34 28 90 -5 c50 -3 79 -2 65 2 -14 5
-51 8 -82 9 -56 1 -75 12 -42 25 25 10 93 7 115 -4 15 -9 21 -7 27 7 5 13 8 7
10 -20 3 -30 -2 -43 -20 -60z"/>
</g>
</svg>
