<?xml version="1.0" standalone="no"?>
<!DOCTYPE svg PUBLIC "-//W3C//DTD SVG 20010904//EN"
 "http://www.w3.org/TR/2001/REC-SVG-20010904/DTD/svg10.dtd">
<svg version="1.0" xmlns="http://www.w3.org/2000/svg"
 width="48.000000pt" height="48.000000pt" viewBox="0 0 48.000000 48.000000"
 preserveAspectRatio="xMidYMid meet">

<g transform="translate(0.000000,48.000000) scale(0.100000,-0.100000)"
fill="#000000" stroke="none">
<path d="M188 443 c-10 -2 -18 -12 -18 -22 0 -15 7 -17 53 -13 37 3 63 -1 84
-12 28 -14 32 -14 44 0 10 13 10 17 -2 25 -37 23 -115 34 -161 22z"/>
<path d="M326 300 c-44 -33 -82 -60 -85 -60 -3 0 -21 9 -38 20 l-33 20 0 -23
c0 -22 43 -57 69 -57 6 0 51 30 101 66 73 54 88 69 79 80 -6 8 -12 14 -13 14
0 0 -37 -27 -80 -60z"/>
<path d="M423 248 c-6 -7 -13 -30 -17 -51 -4 -20 -21 -53 -38 -73 -24 -28 -28
-38 -19 -47 27 -26 101 93 101 162 0 23 -12 27 -27 9z"/>
</g>
</svg>
