<?xml version="1.0" standalone="no"?>
<!DOCTYPE svg PUBLIC "-//W3C//DTD SVG 20010904//EN"
 "http://www.w3.org/TR/2001/REC-SVG-20010904/DTD/svg10.dtd">
<svg version="1.0" xmlns="http://www.w3.org/2000/svg"
 width="16.000000pt" height="16.000000pt" viewBox="0 0 16.000000 16.000000"
 preserveAspectRatio="xMidYMid meet">

<g transform="translate(0.000000,16.000000) scale(0.100000,-0.100000)"
fill="#000000" stroke="none">
<path d="M62 143 c-4 -10 -16 -18 -26 -18 -16 0 -19 -7 -19 -43 0 -29 6 -49
18 -60 10 -9 15 -12 12 -7 -3 6 10 10 33 10 23 0 36 -4 33 -10 -3 -5 2 -2 12
7 12 11 18 31 18 60 0 36 -3 43 -19 43 -10 0 -22 8 -26 18 -4 9 -12 17 -18 17
-6 0 -14 -8 -18 -17z m28 -3 c0 -5 -4 -10 -10 -10 -5 0 -10 5 -10 10 0 6 5 10
10 10 6 0 10 -4 10 -10z m-38 -52 c2 -28 7 -33 28 -33 21 0 26 5 28 33 2 17 7
32 12 32 11 0 18 -80 6 -87 -5 -3 -6 -1 -2 5 9 15 1 15 -24 0 -16 -10 -24 -10
-40 0 -25 15 -33 15 -24 0 4 -6 3 -8 -2 -5 -12 7 -5 87 6 87 5 0 10 -15 12
-32z m46 -1 c3 -22 -1 -27 -17 -27 -15 0 -21 6 -21 23 0 46 33 49 38 4z"/>
<path d="M2 80 c0 -14 2 -19 5 -12 2 6 2 18 0 25 -3 6 -5 1 -5 -13z"/>
<path d="M152 80 c0 -14 2 -19 5 -12 2 6 2 18 0 25 -3 6 -5 1 -5 -13z"/>
<path d="M68 3 c6 -2 18 -2 25 0 6 3 1 5 -13 5 -14 0 -19 -2 -12 -5z"/>
</g>
</svg>
