<?xml version="1.0" standalone="no"?>
<!DOCTYPE svg PUBLIC "-//W3C//DTD SVG 20010904//EN"
 "http://www.w3.org/TR/2001/REC-SVG-20010904/DTD/svg10.dtd">
<svg version="1.0" xmlns="http://www.w3.org/2000/svg"
 width="256.000000pt" height="256.000000pt" viewBox="0 0 256.000000 256.000000"
 preserveAspectRatio="xMidYMid meet">

<g transform="translate(0.000000,256.000000) scale(0.100000,-0.100000)"
fill="#000000" stroke="none">
<path d="M1107 2202 c-43 -15 -67 -38 -203 -192 -100 -114 -164 -196 -183
-235 -19 -39 -50 -146 -86 -295 -73 -311 -118 -472 -161 -583 -81 -210 -104
-286 -104 -349 0 -59 2 -62 41 -99 51 -47 115 -79 156 -79 19 0 54 16 94 43
126 84 216 95 340 38 187 -85 352 -89 526 -12 138 60 269 49 335 -29 38 -44
81 -70 117 -70 16 0 55 28 118 87 l95 87 -4 66 c-3 51 -12 83 -40 141 -70 142
-86 190 -173 509 -37 135 -63 254 -76 350 -10 80 -22 158 -25 174 -7 31 -339
417 -376 437 -18 10 -220 28 -308 28 -19 0 -57 -8 -83 -17z m283 -578 c61 -33
117 -94 170 -184 38 -65 138 -307 201 -491 l33 -96 -35 -59 c-32 -54 -38 -59
-66 -56 -25 2 -35 -3 -54 -30 -12 -18 -40 -52 -61 -75 -21 -24 -38 -49 -38
-57 0 -24 -115 -116 -144 -116 -3 0 -3 14 1 30 3 17 3 30 0 30 -19 0 -61 -24
-95 -55 l-39 -35 -73 30 c-40 17 -80 36 -88 43 -12 9 -17 9 -25 -5 -9 -14 -18
-10 -70 35 -33 29 -77 78 -99 110 -25 37 -46 57 -58 57 -17 0 -20 7 -20 40 0
35 -7 48 -45 89 l-44 48 35 89 c19 49 60 161 91 249 111 318 154 384 280 431
62 23 180 12 243 -22z"/>
</g>
</svg>
