<?xml version="1.0" standalone="no"?>
<!DOCTYPE svg PUBLIC "-//W3C//DTD SVG 20010904//EN"
 "http://www.w3.org/TR/2001/REC-SVG-20010904/DTD/svg10.dtd">
<svg version="1.0" xmlns="http://www.w3.org/2000/svg"
 width="128.000000pt" height="128.000000pt" viewBox="0 0 128.000000 128.000000"
 preserveAspectRatio="xMidYMid meet">

<g transform="translate(0.000000,128.000000) scale(0.100000,-0.100000)"
fill="#000000" stroke="none">
<path d="M1014 1073 c-21 -26 -69 -82 -106 -125 -38 -42 -68 -79 -68 -82 0 -3
56 -7 125 -8 l126 -3 -66 -72 -67 -73 -93 0 -93 0 -107 -112 c-110 -115 -143
-160 -209 -282 -21 -38 -51 -90 -67 -116 -16 -26 -29 -50 -29 -54 0 -4 -7 -14
-15 -22 -26 -27 -16 -41 48 -68 99 -41 145 -49 257 -49 86 0 120 5 187 27 194
63 345 214 410 410 23 69 27 98 26 196 0 97 -4 128 -26 196 -30 92 -84 180
-149 242 l-44 43 -40 -48z m10 -473 c-71 -69 -72 -70 -126 -70 -52 0 -55 -2
-108 -55 l-54 -55 -98 0 c-54 0 -98 3 -98 7 0 4 55 60 123 124 l122 118 155 0
155 1 -71 -70z"/>
</g>
</svg>
